<svg width="53" height="78" viewBox="0 0 53 78" fill="none" xmlns="http://www.w3.org/2000/svg">
<path d="M37.6295 17.2789C31.4977 18.9715 26.9948 24.5902 26.9948 31.2603C26.9949 38.3061 32.0198 44.1768 38.6813 45.4879C40.8631 48.3577 42.3695 51.6396 43.0416 55.0591C44.695 63.4857 42.0491 71.5329 35.9459 77.3472L27.8727 69.3023C31.5342 65.6134 33.0401 60.6099 31.1715 55.4918C29.6381 51.3027 25.4352 47.4144 20.4567 47.3179L13.2946 47.1861L13.3063 38.7769L22.5485 28.6285L0.384399 28.5748L0.366821 17.2164H37.6295V17.2789ZM27.8727 69.3023C27.8698 69.3052 27.8678 69.3091 27.8649 69.3121L27.8707 69.3004L27.8727 69.3023Z" fill="#F06310"/>
<circle cx="41.4974" cy="31.2601" r="8.0225" fill="#F06310" stroke="#F06310" stroke-width="5.91057"/>
<path d="M3.9171 14.0868C3.28078 14.0868 2.71057 13.9835 2.20647 13.7769C1.70237 13.5703 1.29744 13.2645 0.991671 12.8596C0.69417 12.4546 0.537155 11.9671 0.520627 11.3969H2.77668C2.80973 11.7192 2.9213 11.9671 3.11137 12.1406C3.30144 12.3059 3.54936 12.3885 3.85512 12.3885C4.16915 12.3885 4.41707 12.3183 4.59887 12.1778C4.78068 12.0291 4.87158 11.8266 4.87158 11.5704C4.87158 11.3555 4.79721 11.1779 4.64846 11.0374C4.50797 10.8969 4.3303 10.7812 4.11543 10.6903C3.90884 10.5994 3.61134 10.4961 3.22293 10.3804C2.66098 10.2069 2.20234 10.0333 1.84699 9.85977C1.49164 9.68623 1.18587 9.43005 0.929692 9.09123C0.67351 8.75241 0.545419 8.31029 0.545419 7.76487C0.545419 6.955 0.838788 6.32281 1.42553 5.8683C2.01227 5.40552 2.77668 5.17413 3.71877 5.17413C4.67738 5.17413 5.45006 5.40552 6.0368 5.8683C6.62354 6.32281 6.93756 6.95914 6.97888 7.77726H4.68565C4.66912 7.49629 4.56582 7.2773 4.37575 7.12028C4.18568 6.955 3.94189 6.87236 3.64439 6.87236C3.38821 6.87236 3.18161 6.94261 3.0246 7.0831C2.86758 7.21532 2.78907 7.40952 2.78907 7.6657C2.78907 7.94668 2.9213 8.16567 3.18574 8.32268C3.45019 8.4797 3.86338 8.64911 4.42533 8.83092C4.98728 9.02099 5.44179 9.20279 5.78888 9.37633C6.14423 9.54988 6.44999 9.80193 6.70617 10.1325C6.96236 10.463 7.09045 10.8886 7.09045 11.4093C7.09045 11.9051 6.96236 12.3555 6.70617 12.7604C6.45826 13.1653 6.09464 13.4876 5.61534 13.7273C5.13603 13.9669 4.56995 14.0868 3.9171 14.0868ZM10.4774 5.29809V10.5044C10.4774 11.025 10.6055 11.4258 10.8617 11.7068C11.1179 11.9877 11.4939 12.1282 11.9897 12.1282C12.4856 12.1282 12.8657 11.9877 13.1301 11.7068C13.3946 11.4258 13.5268 11.025 13.5268 10.5044V5.29809H15.6465V10.492C15.6465 11.2688 15.4812 11.9258 15.1507 12.4629C14.8201 13.0001 14.3739 13.405 13.8119 13.6777C13.2582 13.9504 12.6384 14.0868 11.9525 14.0868C11.2666 14.0868 10.651 13.9545 10.1056 13.6901C9.5684 13.4174 9.14281 13.0125 8.82878 12.4753C8.51475 11.9299 8.35773 11.2688 8.35773 10.492V5.29809H10.4774ZM23.7668 8.09956C23.7668 8.60366 23.6511 9.06644 23.4197 9.4879C23.1883 9.90109 22.833 10.2358 22.3537 10.492C21.8743 10.7481 21.2793 10.8762 20.5686 10.8762H19.2547V14H17.135V5.29809H20.5686C21.2628 5.29809 21.8496 5.41791 22.3289 5.65757C22.8082 5.89722 23.1677 6.22778 23.4073 6.64924C23.647 7.0707 23.7668 7.55414 23.7668 8.09956ZM20.4075 9.1904C20.8124 9.1904 21.1141 9.09536 21.3124 8.90529C21.5107 8.71522 21.6099 8.44664 21.6099 8.09956C21.6099 7.75247 21.5107 7.4839 21.3124 7.29383C21.1141 7.10376 20.8124 7.00872 20.4075 7.00872H19.2547V9.1904H20.4075ZM26.99 6.99632V8.75654H29.8287V10.3928H26.99V12.3018H30.2005V14H24.8703V5.29809H30.2005V6.99632H26.99ZM36.0144 14L34.2046 10.7151H33.6964V14H31.5767V5.29809H35.1343C35.8202 5.29809 36.4028 5.41791 36.8821 5.65757C37.3697 5.89722 37.7333 6.22778 37.973 6.64924C38.2126 7.06243 38.3324 7.52521 38.3324 8.03758C38.3324 8.61605 38.1672 9.13255 37.8366 9.58706C37.5143 10.0416 37.035 10.3639 36.3987 10.5539L38.4068 14H36.0144ZM33.6964 9.21519H35.0103C35.3987 9.21519 35.688 9.12015 35.8781 8.93008C36.0764 8.74001 36.1756 8.47143 36.1756 8.12435C36.1756 7.79379 36.0764 7.53348 35.8781 7.34341C35.688 7.15334 35.3987 7.0583 35.0103 7.0583H33.6964V9.21519Z" fill="#F06310"/>
</svg>
