<svg width="1284" height="364" viewBox="0 0 1284 364" fill="none" xmlns="http://www.w3.org/2000/svg">
<rect width="1284" height="364" fill="white"/>
<path d="M234.7 329.5L291.04 324.19L349.13 318.93L423.96 310.02L471.06 303.05L520.23 294.3C532.12 292.19 543.27 290.74 555.38 289.32L667.03 276.22L756.03 266.02L778.63 263.44L879.38 251.36C900.36 248.85 920.28 246.04 940.85 241.94C949.78 240.16 958.15 237.08 966.01 233.15C976.78 227.76 982.53 218.53 984.95 206.94C985.79 202.93 986.92 199.14 984.5 195.23C982.82 192.51 978.41 189.99 974.13 189.97C963.94 189.92 954.18 189.95 944.09 190.56C937.6 190.95 932.02 191.38 924.72 191.27C930.69 168.81 936.29 154.95 953.76 140.85L982.03 118.04C986.45 114.47 990.17 110.62 994.7 106.45L977.08 107.39L954.48 108.75L928.05 110.53C922.39 110.91 917.53 111.74 911.24 111.6L931.99 53.1397C937.06 51.5897 941.75 51.2497 947.08 50.7897L1025.06 43.9797L1055.91 41.6297C1064.53 40.9697 1072.36 40.2097 1081.61 40.2097L1064.61 92.6897C1063.85 95.0397 1062.58 100.24 1060.57 101.61L1016.4 131.69L1000.6 142.04C1015.09 142.95 1039.5 140.58 1047.85 153.49C1051.7 159.45 1053.19 168.16 1051.31 175.27L1036.51 231.42C1030.38 254.66 1025.79 272.31 1002.34 284.55C986.01 293.08 968.51 296.47 949.89 299.63C953.08 300.44 956.52 299.82 960.15 299.46C974.92 297.99 989.01 295.78 1003.52 292.68C1012.56 290.75 1020.58 287.11 1029.17 282.62C1037.19 293.92 1047.88 295.31 1061.2 296.04C1054.76 293.02 1047.79 291.88 1043.32 285.94C1031.1 269.67 1039.09 243.11 1044.36 224.59L1058.73 174.08L1081.94 92.2197C1090.31 62.7097 1104.16 45.6997 1132.15 33.0397C1153.27 23.4497 1175.84 19.6497 1199.03 20.0297C1209.05 20.1897 1218.45 21.0297 1227.69 24.5197C1250.43 33.1097 1253.21 55.7597 1247.98 77.2497L1211.31 228.07C1204.77 254.96 1186.29 274.74 1161.32 285.69C1141.34 294.45 1120.34 297.88 1098.41 298.75L1046.69 300.79L1009.66 302.81L979.61 304.81L946.71 306.92L918.5 308.8L888.49 310.79L857.5 312.83L827.49 314.8L795.61 316.8L764.46 318.76L732.49 320.77L703.09 322.6L689.05 323.5L669.06 324.58L655.06 325.48L636.05 326.53L617.07 327.58L602.05 328.5L586.16 329.54L570.05 330.48L531.25 332.67L491.47 334.81L402.07 339.81L378.57 340.82L328.06 343.42C322.43 343.71 317.19 344.64 311.97 343.71L326.06 342.24L354.92 339.6L477.93 328.11L517.23 324.22L695.89 305.96L716.98 303.74C721.59 303.25 725.89 302.48 730.22 301.53C724.88 301.12 720.19 301.57 715.07 301.81L688.18 303.1L648.07 305.84L626.96 306.99L477.2 318.12L417.01 322.17L293.17 330.16L220.08 334.43L198.07 335.62L182.08 336.45C177.66 336.68 173.62 337.53 168.99 336.69L182.18 335.04L234.7 329.49V329.5ZM1133.81 234.49C1141.66 232.14 1145.74 226.16 1147.76 218.75L1164.63 156.85L1184.53 85.4997C1185.37 82.4997 1184.28 77.8297 1182.73 75.9797C1180.87 73.7597 1177.27 73.3797 1174.16 73.2097C1151.74 71.9897 1144.01 86.2397 1138.97 105.04L1109.37 215.47C1107.76 221.47 1106.97 229.19 1112 233.17C1117.89 237.82 1126.75 236.61 1133.82 234.49H1133.81Z" fill="url(#paint0_linear_4632_633)"/>
<path d="M233.91 232.819L121.2 242.339C106.67 243.569 93.4602 244.479 78.9002 243.839C124.95 235.419 170.88 229.699 217.59 223.479L298.62 212.699C303.8 212.009 308.17 211.219 312.94 208.369C309.98 206.859 306.93 206.299 303.35 205.859L283.84 203.509L234.76 196.639C225.31 195.319 216.78 196.849 207.2 197.659L81.1902 208.369L47.0202 210.529C42.5002 210.819 38.1502 211.359 33.9902 210.759C40.0102 209.829 45.2602 209.009 51.1202 208.449C53.7902 208.199 57.7002 209.649 60.1302 208.789L53.9702 207.559L102.23 200.079C157.8 191.459 212.71 184.859 268.6 179.649C284.7 178.149 299.7 174.649 314.65 167.259C307.61 165.309 301.22 166.309 294.63 166.709L259.84 168.829L240.12 169.979L220.13 171.109L203.85 171.669L284.41 152.269C297.07 149.219 308.81 146.119 321.55 140.889C295.1 138.699 270.07 138.999 244.35 139.789L218.97 140.569L202.12 141.369C201.57 141.399 200.04 141.839 199.53 141.919C199.02 141.999 198.44 140.989 198.07 140.529L220.26 137.039L302.99 125.189L361.19 118.049L441.37 107.539L429.48 147.729L384.99 155.159C375.95 157.859 350.21 162.549 346.94 173.169C349.55 174.899 352.92 176.469 355.88 177.229L390.19 186.059C406.95 190.369 416.83 204.799 411.7 222.559L402.71 253.649C398.48 268.269 387.35 278.899 372.89 283.029C361.98 286.139 351.55 286.969 340.04 287.729L187.95 297.779L166.12 298.979L147.98 299.929L130.11 300.569C123.92 300.789 118.37 301.509 111.93 300.709L128.18 298.109L207.81 284.579L263.99 273.959C270.64 272.699 276.61 270.669 283.53 267.609C271.93 266.919 261.04 267.359 249.45 267.779L223.91 268.719L204 269.459C199.8 269.619 195.63 270.909 191.84 269.339C220.86 264.119 248.92 260.619 277.76 257.649L294.16 255.959C311.14 254.209 327.41 250.219 343.93 246.099C351.75 244.149 366.55 234.669 362.75 224.289C361.05 222.399 356.11 221.669 353.02 221.959L280.7 228.719L233.89 232.809L233.91 232.819Z" fill="#0A0A0A"/>
<path d="M807.19 249.52L801.43 196.18C801.35 195.42 800.68 193.74 800.45 193.23C800.14 192.55 798.13 194.1 797.56 194.7L779.38 253.54L732.9 258.34L760.92 171.14L781.04 109.37L793.3 73.0403C798.79 71.6003 804.24 71.4103 810.12 70.8403L859 66.1503C871.82 64.9203 892.05 68.3603 894.69 83.8003C895.39 87.8903 895.17 92.3303 894.92 96.7103C888.86 116.43 883.13 135.6 875.9 154.75C869.93 170.55 858.55 182.44 842.36 187.75L850.05 244.7L827.14 247.21L807.19 249.53V249.52ZM841.28 137.99L847.6 119.76C848.91 115.97 846.26 110.63 841.94 110.25C835.25 109.65 828.4 110.52 822.26 111.93L808.79 154.85C821.65 154.66 836.25 152.48 841.27 138L841.28 137.99Z" fill="#0A0A0A"/>
<path d="M432.429 184.101L454.749 107.091L500.629 101.971L462.699 232.541C461.809 235.601 462.009 239.431 463.299 241.871C472.989 245.741 482.629 240.641 485.479 230.461L522.229 99.5214L567.889 94.4414L522.519 246.131C516.079 262.131 505.299 273.941 488.889 279.001C470.489 284.681 450.979 287.041 431.999 284.551C422.549 283.311 415.709 277.531 413.659 268.561C411.939 261.021 412.659 253.411 414.799 245.901L432.409 184.081L432.429 184.101Z" fill="#0A0A0A"/>
<path d="M583.569 216.47L568.009 269.23C564.329 270.75 560.259 270.89 556.019 271.32L522.359 274.75L551.029 176.21L575.459 92.91L628.999 87.06C637.989 86.08 646.499 86.08 655.339 86.39C663.109 88.18 671.119 91.08 674.459 98.91C676.809 104.41 676.869 111.94 675.039 117.95L658.419 172.53C653.419 188.96 641.269 202.38 625.429 208.53C611.979 213.75 598.679 215.24 583.579 216.47H583.569ZM621.149 161.75L628.809 138.7C629.659 136.15 629.569 130.39 627.309 129.14C620.589 126.96 613.499 128.37 607.299 130.22L593.269 177.06C605.019 176.51 616.439 175.91 621.149 161.75Z" fill="#0A0A0A"/>
<path d="M745.23 180.499C738.88 181.679 731.89 182.519 725.09 183.249L705.3 185.359L693.31 223.399L735.5 219.149L723.31 258.989L636.65 267.139L678.48 132.899L694.44 82.4091L783.59 73.0391L770.66 113.749L754.19 115.539L742.8 116.769L724.45 118.709L714.92 149.149L728.84 147.759L756.13 144.389L745.21 180.519L745.23 180.499Z" fill="#0A0A0A"/>
<path d="M841.281 137.989C836.261 152.469 821.661 154.649 808.801 154.839L822.271 111.919C828.411 110.509 835.261 109.639 841.951 110.239C846.271 110.629 848.921 115.969 847.611 119.749L841.291 137.979L841.281 137.989Z" fill="white"/>
<path d="M621.15 161.75C616.44 175.91 605.02 176.51 593.27 177.06L607.299 130.22C613.509 128.36 620.6 126.95 627.31 129.14C629.57 130.39 629.66 136.15 628.81 138.7L621.15 161.75Z" fill="white"/>
<defs>
<linearGradient id="paint0_linear_4632_633" x1="169" y1="362.5" x2="1250.23" y2="182.058" gradientUnits="userSpaceOnUse">
<stop stop-color="#C34D34"/>
<stop offset="1" stop-color="#E16A29"/>
</linearGradient>
</defs>
</svg>
