<svg width="119" height="47" viewBox="0 0 119 47" fill="none" xmlns="http://www.w3.org/2000/svg">
<path d="M7.58854 37.2448C5.13043 37.2448 3.35569 36.6328 2.26432 35.4089C1.18316 34.1849 0.642578 32.2368 0.642578 29.5645V26.9329H5.9668V30.2988C5.9668 30.921 6.05859 31.4106 6.24219 31.7676C6.43598 32.1144 6.76747 32.2878 7.23665 32.2878C7.72624 32.2878 8.06283 32.145 8.24642 31.8594C8.44021 31.5738 8.53711 31.1046 8.53711 30.4518C8.53711 29.6257 8.45551 28.9372 8.29232 28.3864C8.12912 27.8254 7.84353 27.295 7.43555 26.7952C7.03776 26.2853 6.48188 25.6937 5.7679 25.0205L3.35059 22.7256C1.54525 21.0222 0.642578 19.0741 0.642578 16.8812C0.642578 14.5863 1.17296 12.837 2.23372 11.6335C3.30469 10.4299 4.84993 9.82812 6.86947 9.82812C9.33778 9.82812 11.087 10.486 12.1172 11.8018C13.1576 13.1175 13.6777 15.1166 13.6777 17.7992H8.20052V15.9479C8.20052 15.5807 8.09342 15.2951 7.87923 15.0911C7.67524 14.8872 7.39475 14.7852 7.03776 14.7852C6.60938 14.7852 6.29319 14.9076 6.08919 15.1523C5.8954 15.3869 5.7985 15.6929 5.7985 16.0703C5.7985 16.4477 5.9005 16.8557 6.10449 17.2943C6.30849 17.7329 6.71137 18.2377 7.31315 18.8089L10.4189 21.7923C11.0411 22.3839 11.6123 23.0112 12.1325 23.6742C12.6527 24.3269 13.0709 25.0919 13.387 25.9691C13.7032 26.836 13.8613 27.8968 13.8613 29.1514C13.8613 31.6809 13.3921 33.6647 12.4538 35.1029C11.5256 36.5308 9.90386 37.2448 7.58854 37.2448ZM21.8936 37.2448C19.6496 37.2448 17.9973 36.6175 16.9365 35.363C15.8758 34.0982 15.3454 32.2419 15.3454 29.7939V10.0729H20.5778V29.5798C20.5778 30.0285 20.6033 30.462 20.6543 30.8802C20.7053 31.2882 20.8226 31.6248 21.0062 31.89C21.1898 32.1552 21.4856 32.2878 21.8936 32.2878C22.3117 32.2878 22.6126 32.1603 22.7962 31.9053C22.9798 31.6401 23.092 31.2984 23.1328 30.8802C23.1838 30.462 23.2093 30.0285 23.2093 29.5798V10.0729H28.4417V29.7939C28.4417 32.2419 27.9114 34.0982 26.8506 35.363C25.7898 36.6175 24.1375 37.2448 21.8936 37.2448ZM30.5072 37V10.0729H37.6214C39.1106 10.0729 40.2886 10.4044 41.1556 11.0674C42.0328 11.7304 42.66 12.6738 43.0374 13.8978C43.4148 15.1217 43.6035 16.5803 43.6035 18.2734C43.6035 19.9054 43.4454 21.3282 43.1292 22.542C42.813 23.7456 42.247 24.6788 41.431 25.3418C40.6252 26.0048 39.4778 26.3363 37.9886 26.3363H35.8008V37H30.5072ZM35.8008 21.5016H36.1068C37.1063 21.5016 37.7183 21.2211 37.9427 20.6602C38.1671 20.0992 38.2793 19.273 38.2793 18.1816C38.2793 17.1617 38.1671 16.3763 37.9427 15.8255C37.7285 15.2645 37.2134 14.984 36.3975 14.984H35.8008V21.5016ZM45.3171 37V10.0729H56.0879V15.2747H50.7943V20.5225H55.8737V25.5866H50.7943V31.7523H56.4398V37H45.3171ZM58.2298 37V10.0729H66.4915C67.8685 10.0729 68.9089 10.3891 69.6126 11.0215C70.3164 11.6437 70.7856 12.5208 71.0202 13.653C71.265 14.775 71.3874 16.0958 71.3874 17.6156C71.3874 19.0843 71.1987 20.2573 70.8213 21.1344C70.4541 22.0116 69.7554 22.6185 68.7253 22.9551C69.5718 23.1285 70.1634 23.5518 70.5 24.2249C70.8468 24.8879 71.0202 25.7498 71.0202 26.8105V37H65.7113V26.4587C65.7113 25.6733 65.5481 25.1888 65.2217 25.0052C64.9055 24.8114 64.3904 24.7145 63.6764 24.7145V37H58.2298ZM63.707 20.0482H65.0075C65.7521 20.0482 66.1244 19.2373 66.1244 17.6156C66.1244 16.565 66.0428 15.8765 65.8796 15.5501C65.7164 15.2237 65.4104 15.0605 64.9616 15.0605H63.707V20.0482Z" fill="#211006"/>
<rect x="77.7734" y="1.67969" width="40.8452" height="40.8452" rx="7.27381" fill="#F95B00"/>
<g clip-path="url(#clip0_4633_820)">
<path d="M99.7282 33.7827C101.463 32.0822 102.177 29.7734 101.293 27.414C100.57 25.4831 98.5793 23.6905 96.2248 23.649L92.8397 23.5891V19.7135L97.213 15.0361L86.736 15.0085L86.7266 9.77344H104.343L104.357 15.2665L100.537 19.3725C103.908 20.967 106.243 23.9532 106.9 27.2112C107.68 31.096 106.432 34.8011 103.544 37.4831L99.7234 33.7734L99.7282 33.7827Z" fill="white"/>
<path d="M106.172 22.9305C109.958 22.9305 113.027 19.9388 113.027 16.2484C113.027 12.5581 109.958 9.56641 106.172 9.56641C102.386 9.56641 99.3164 12.5581 99.3164 16.2484C99.3164 19.9388 102.386 22.9305 106.172 22.9305Z" fill="white"/>
<mask id="mask0_4633_820" style="mask-type:luminance" maskUnits="userSpaceOnUse" x="99" y="9" width="15" height="14">
<path d="M112.507 18.808C113.956 15.3985 112.295 11.4898 108.797 10.0775C105.299 8.66526 101.289 10.2843 99.8402 13.6938C98.3914 17.1033 100.052 21.012 103.55 22.4243C107.048 23.8365 111.058 22.2175 112.507 18.808Z" fill="white"/>
</mask>
<g mask="url(#mask0_4633_820)">
<path d="M106.173 9.56795V12.2915C108.419 12.2915 110.234 14.0657 110.234 16.25H115.823C115.823 11.0564 111.501 6.84445 106.173 6.84445V9.56795ZM99.3176 16.25H102.112C102.112 14.061 103.932 12.2915 106.173 12.2915V6.83984C100.845 6.83984 96.5234 11.0518 96.5234 16.2454H99.3176V16.25ZM106.173 22.932V20.2085C103.927 20.2085 102.112 18.4343 102.112 16.25H96.5234C96.5234 21.4435 100.845 25.6555 106.173 25.6555V22.932ZM113.028 16.25H110.234C110.234 18.4389 108.414 20.2085 106.173 20.2085V25.6555C111.501 25.6555 115.823 21.4435 115.823 16.25H113.028Z" fill="#F95B00"/>
</g>
<path d="M106.172 21.3073C109.039 21.3073 111.363 19.0419 111.363 16.2474C111.363 13.4529 109.039 11.1875 106.172 11.1875C103.305 11.1875 100.98 13.4529 100.98 16.2474C100.98 19.0419 103.305 21.3073 106.172 21.3073Z" fill="white"/>
<mask id="mask1_4633_820" style="mask-type:luminance" maskUnits="userSpaceOnUse" x="100" y="11" width="12" height="11">
<path d="M106.172 21.3073C109.039 21.3073 111.363 19.0419 111.363 16.2474C111.363 13.4529 109.039 11.1875 106.172 11.1875C103.305 11.1875 100.98 13.4529 100.98 16.2474C100.98 19.0419 103.305 21.3073 106.172 21.3073Z" fill="white"/>
</mask>
<g mask="url(#mask1_4633_820)">
<path d="M106.173 11.1883V13.9118C107.497 13.9118 108.57 14.9579 108.57 16.2483H114.158C114.158 11.9487 110.584 8.46484 106.173 8.46484V11.1883ZM100.982 16.2483H103.776C103.776 14.9579 104.849 13.9118 106.173 13.9118V8.46484C101.762 8.46484 98.1875 11.9487 98.1875 16.2483H100.982ZM106.173 21.3082V18.5847C104.849 18.5847 103.776 17.5386 103.776 16.2483H98.1875C98.1875 20.5478 101.762 24.0317 106.173 24.0317V21.3082ZM111.364 16.2483H108.57C108.57 17.5386 107.497 18.5847 106.173 18.5847V24.0317C110.584 24.0317 114.158 20.5478 114.158 16.2483H111.364Z" fill="white"/>
</g>
</g>
<defs>
<clipPath id="clip0_4633_820">
<rect width="29.0952" height="33.5714" fill="white" transform="translate(86.7266 3.91797)"/>
</clipPath>
</defs>
</svg>
